{
  "accessors": [
    {
      "bufferView": 2,
      "componentType": 5126,
      "count": 15989,
      "max": [
        2.5240399837493896,
        2.52213191986084,
        2.236649990081787
      ],
      "min": [
        -2.239129066467285,
        -2.4448139667510986,
        -2.306741952896118
      ],
      "type": "VEC3"
    },
    {
      "bufferView": 2,
      "byteOffset": 191868,
      "componentType": 5126,
      "count": 15989,
      "max": [
        0.9999774694442749,
        1.0,
        0.9992765188217163
      ],
      "min": [
        -0.9999774694442749,
        -1.0,
        -0.9991801977157593
      ],
      "type": "VEC3"
    },
    {
      "bufferView": 1,
      "componentType": 5126,
      "count": 15989,
      "max": [
        1.0,
        1.0
      ],
      "min": [
        0.0,
        0.0
      ],
      "type": "VEC2"
    },
    {
      "bufferView": 0,
      "componentType": 5125,
      "count": 24735,
      "type": "SCALAR"
    },
    {
      "bufferView": 2,
      "byteOffset": 383736,
      "componentType": 5126,
      "count": 498,
      "max": [
        2.061953067779541,
        2.38419508934021,
        2.0063719749450684
      ],
      "min": [
        -2.1932740211486816,
        -2.260901927947998,
        -2.1150670051574707
      ],
      "type": "VEC3"
    },
    {
      "bufferView": 2,
      "byteOffset": 389712,
      "componentType": 5126,
      "count": 498,
      "max": [
        0.9336061477661133,
        0.8790789842605591,
        0.9640948176383972
      ],
      "min": [
        -0.9975590109825134,
        -0.9796077013015747,
        -0.9999840259552002
      ],
      "type": "VEC3"
    },
    {
      "bufferView": 1,
      "byteOffset": 127912,
      "componentType": 5126,
      "count": 498,
      "max": [
        1.0,
        0.8333330154418945
      ],
      "min": [
        0.0,
        0.0
      ],
      "type": "VEC2"
    },
    {
      "bufferView": 0,
      "byteOffset": 98940,
      "componentType": 5125,
      "count": 732,
      "type": "SCALAR"
    },
    {
      "bufferView": 2,
      "byteOffset": 395688,
      "componentType": 5126,
      "count": 4,
      "max": [
        1.6493029594421387,
        -0.4141089916229248,
        -0.8979290127754211
      ],
      "min": [
        -1.67815101146698,
        -0.7894799709320068,
        -1.091333031654358
      ],
      "type": "VEC3"
    },
    {
      "bufferView": 0,
      "byteOffset": 101868,
      "componentType": 5125,
      "count": 4,
      "type": "SCALAR"
    },
    {
      "bufferView": 2,
      "byteOffset": 395736,
      "componentType": 5126,
      "count": 1200,
      "max": [
        0.424796998500824,
        2.3909339904785156,
        2.1977920532226563
      ],
      "min": [
        -2.22189998626709,
        -1.3892509937286377,
        -1.8022810220718384
      ],
      "type": "VEC3"
    },
    {
      "bufferView": 2,
      "byteOffset": 410136,
      "componentType": 5126,
      "count": 1200,
      "max": [
        0.9464324712753296,
        0.8699096441268921,
        0.9446669816970825
      ],
      "min": [
        -0.9543247818946838,
        -0.9356769323348999,
        -0.9985977411270142
      ],
      "type": "VEC3"
    },
    {
      "bufferView": 1,
      "byteOffset": 131896,
      "componentType": 5126,
      "count": 1200,
      "max": [
        1.0,
        1.0
      ],
      "min": [
        0.0,
        0.009999999776482582
      ],
      "type": "VEC2"
    },
    {
      "bufferView": 0,
      "byteOffset": 101884,
      "componentType": 5125,
      "count": 2100,
      "type": "SCALAR"
    },
    {
      "bufferView": 2,
      "byteOffset": 424536,
      "componentType": 5126,
      "count": 5760,
      "max": [
        3.0599679946899414,
        3.072118043899536,
        3.6947479248046875
      ],
      "min": [
        -3.4395220279693604,
        -1.6612199544906616,
        -2.4404120445251465
      ],
      "type": "VEC3"
    },
    {
      "bufferView": 2,
      "byteOffset": 493656,
      "componentType": 5126,
      "count": 5760,
      "max": [
        0.9997422099113464,
        0.9988713264465332,
        0.9999058246612549
      ],
      "min": [
        -0.9997422099113464,
        -0.9988713264465332,
        -0.9999058246612549
      ],
      "type": "VEC3"
    },
    {
      "bufferView": 1,
      "byteOffset": 141496,
      "componentType": 5126,
      "count": 5760,
      "max": [
        1.0,
        0.47238200902938843
      ],
      "min": [
        0.0,
        0.0
      ],
      "type": "VEC2"
    },
    {
      "bufferView": 0,
      "byteOffset": 110284,
      "componentType": 5125,
      "count": 5760,
      "type": "SCALAR"
    },
    {
      "bufferView": 2,
      "byteOffset": 562776,
      "componentType": 5126,
      "count": 1646,
      "max": [
        2.4225339889526367,
        2.6890249252319336,
        2.304969072341919
      ],
      "min": [
        -2.2939469814300537,
        -2.5817348957061768,
        -2.2941389083862305
      ],
      "type": "VEC3"
    },
    {
      "bufferView": 2,
      "byteOffset": 582528,
      "componentType": 5126,
      "count": 1646,
      "max": [
        0.9932434558868408,
        0.9880352020263672,
        0.9915054440498352
      ],
      "min": [
        -0.9849029183387756,
        -0.9967232942581177,
        -0.9915054440498352
      ],
      "type": "VEC3"
    },
    {
      "bufferView": 1,
      "byteOffset": 187576,
      "componentType": 5126,
      "count": 1646,
      "max": [
        1.0,
        1.0
      ],
      "min": [
        0.0,
        0.0
      ],
      "type": "VEC2"
    },
    {
      "bufferView": 0,
      "byteOffset": 133324,
      "componentType": 5125,
      "count": 2604,
      "type": "SCALAR"
    },
    {
      "bufferView": 2,
      "byteOffset": 602280,
      "componentType": 5126,
      "count": 8292,
      "max": [
        2.4717729091644287,
        2.6890249252319336,
        2.364690065383911
      ],
      "min": [
        -2.2939469814300537,
        -2.4321489334106445,
        -2.2941389083862305
      ],
      "type": "VEC3"
    },
    {
      "bufferView": 2,
      "byteOffset": 701784,
      "componentType": 5126,
      "count": 8292,
      "max": [
        0.9992767572402954,
        0.9986038208007813,
        0.9989665746688843
      ],
      "min": [
        -0.9974463582038879,
        -0.9999697208404541,
        -0.9987528324127197
      ],
      "type": "VEC3"
    },
    {
      "bufferView": 1,
      "byteOffset": 200744,
      "componentType": 5126,
      "count": 8292,
      "max": [
        1.0,
        1.0
      ],
      "min": [
        0.0,
        0.0
      ],
      "type": "VEC2"
    },
    {
      "bufferView": 0,
      "byteOffset": 143740,
      "componentType": 5125,
      "count": 11964,
      "type": "SCALAR"
    }
  ],
  "asset": {
    "extras": {
      "author": "Fitolas (https://sketchfab.com/rodrigofitas.lp)",
      "license": "CC-BY-4.0 (http://creativecommons.org/licenses/by/4.0/)",
      "source": "https://sketchfab.com/3d-models/lava-planet-d5b28875e7b6452e8236d538547b2a68",
      "title": "Lava Planet"
    },
    "generator": "Sketchfab-12.66.0",
    "version": "2.0"
  },
  "bufferViews": [
    {
      "buffer": 0,
      "byteLength": 191596,
      "name": "floatBufferViews",
      "target": 34963
    },
    {
      "buffer": 0,
      "byteLength": 267080,
      "byteOffset": 191596,
      "byteStride": 8,
      "name": "floatBufferViews",
      "target": 34962
    },
    {
      "buffer": 0,
      "byteLength": 801288,
      "byteOffset": 458676,
      "byteStride": 12,
      "name": "floatBufferViews",
      "target": 34962
    }
  ],
  "buffers": [
    {
      "byteLength": 1259964,
      "uri": "scene.bin"
    }
  ],
  "extensionsRequired": [
    "KHR_materials_pbrSpecularGlossiness"
  ],
  "extensionsUsed": [
    "KHR_materials_pbrSpecularGlossiness"
  ],
  "materials": [
    {
      "doubleSided": true,
      "extensions": {
        "KHR_materials_pbrSpecularGlossiness": {
          "diffuseFactor": [
            0.11106511231140416,
            0.11106511231140416,
            0.11106511231140416,
            1
          ],
          "glossinessFactor": 0.4,
          "specularFactor": [
            0,
            0,
            0
          ]
        }
      },
      "name": "null"
    },
    {
      "doubleSided": true,
      "extensions": {
        "KHR_materials_pbrSpecularGlossiness": {
          "diffuseFactor": [
            0.13179327539002966,
            0.6204585874482292,
            0.12150993623161284,
            1.0
          ],
          "glossinessFactor": 0.4,
          "specularFactor": [
            0.1780350704388061,
            0.14772092828345995,
            0.019279837933369876
          ]
        }
      },
      "name": "Folhas"
    },
    {
      "doubleSided": true,
      "emissiveFactor": [
        1.0,
        0.14407175136831396,
        0.028151202327030486
      ],
      "extensions": {
        "KHR_materials_pbrSpecularGlossiness": {
          "diffuseFactor": [
            1.0,
            0.27248960252852966,
            0.020742511621608107,
            1.0
          ],
          "glossinessFactor": 0.4,
          "specularFactor": [
            0.0,
            0.0,
            0.0
          ]
        }
      },
      "name": "Lava"
    },
    {
      "doubleSided": true,
      "extensions": {
        "KHR_materials_pbrSpecularGlossiness": {
          "diffuseFactor": [
            0.40990987343505997,
            0.23376791936748403,
            0.0649707498354431,
            1.0
          ],
          "glossinessFactor": 0.4,
          "specularFactor": [
            0.0,
            0.0,
            0.0
          ]
        }
      },
      "name": "Madeira"
    },
    {
      "doubleSided": true,
      "extensions": {
        "KHR_materials_pbrSpecularGlossiness": {
          "diffuseFactor": [
            0.5399202322377528,
            0.5399202322377528,
            0.5399202322377528,
            1.0
          ],
          "glossinessFactor": 0.4,
          "specularFactor": [
            0.0,
            0.0,
            0.0
          ]
        }
      },
      "name": "Nuvem"
    },
    {
      "doubleSided": true,
      "extensions": {
        "KHR_materials_pbrSpecularGlossiness": {
          "diffuseFactor": [
            0.575679986813788,
            0.7665614189803083,
            0.139459821172193,
            1.0
          ],
          "glossinessFactor": 0.4,
          "specularFactor": [
            0.0,
            0.0,
            0.0
          ]
        }
      },
      "name": "Relva_Seca"
    },
    {
      "doubleSided": true,
      "extensions": {
        "KHR_materials_pbrSpecularGlossiness": {
          "diffuseFactor": [
            0.14107431122548625,
            0.14107431122548625,
            0.14107431122548625,
            1.0
          ],
          "glossinessFactor": 0.4,
          "specularFactor": [
            0.0,
            0.0,
            0.0
          ]
        }
      },
      "name": "Rocha"
    }
  ],
  "meshes": [
    {
      "name": "Object_0",
      "primitives": [
        {
          "attributes": {
            "NORMAL": 1,
            "POSITION": 0,
            "TEXCOORD_0": 2
          },
          "indices": 3,
          "material": 1,
          "mode": 4
        }
      ]
    },
    {
      "name": "Object_1",
      "primitives": [
        {
          "attributes": {
            "NORMAL": 5,
            "POSITION": 4,
            "TEXCOORD_0": 6
          },
          "indices": 7,
          "material": 2,
          "mode": 4
        }
      ]
    },
    {
      "name": "Object_2",
      "primitives": [
        {
          "attributes": {
            "POSITION": 8
          },
          "indices": 9,
          "material": 3,
          "mode": 1
        }
      ]
    },
    {
      "name": "Object_3",
      "primitives": [
        {
          "attributes": {
            "NORMAL": 11,
            "POSITION": 10,
            "TEXCOORD_0": 12
          },
          "indices": 13,
          "material": 3,
          "mode": 4
        }
      ]
    },
    {
      "name": "Object_4",
      "primitives": [
        {
          "attributes": {
            "NORMAL": 15,
            "POSITION": 14,
            "TEXCOORD_0": 16
          },
          "indices": 17,
          "material": 4,
          "mode": 4
        }
      ]
    },
    {
      "name": "Object_5",
      "primitives": [
        {
          "attributes": {
            "NORMAL": 19,
            "POSITION": 18,
            "TEXCOORD_0": 20
          },
          "indices": 21,
          "material": 5,
          "mode": 4
        }
      ]
    },
    {
      "name": "Object_6",
      "primitives": [
        {
          "attributes": {
            "NORMAL": 23,
            "POSITION": 22,
            "TEXCOORD_0": 24
          },
          "indices": 25,
          "material": 6,
          "mode": 4
        }
      ]
    }
  ],
  "nodes": [
    {
      "children": [
        1
      ],
      "matrix": [
        2.4880330562591553,
        0.0,
        0.0,
        0.0,
        0.0,
        5.524543170174823e-16,
        -2.4880330562591553,
        0.0,
        0.0,
        2.4880330562591553,
        5.524543170174823e-16,
        0.0,
        0.0,
        0.0,
        0.0,
        1.0
      ],
      "name": "Sketchfab_model"
    },
    {
      "children": [
        2,
        3,
        4,
        5,
        6,
        7,
        8
      ],
      "name": "Planeta2.obj.cleaner.materialmerger.gles"
    },
    {
      "mesh": 0,
      "name": "Object_2"
    },
    {
      "mesh": 1,
      "name": "Object_3"
    },
    {
      "mesh": 2,
      "name": "Object_4"
    },
    {
      "mesh": 3,
      "name": "Object_5"
    },
    {
      "mesh": 4,
      "name": "Object_6"
    },
    {
      "mesh": 5,
      "name": "Object_7"
    },
    {
      "mesh": 6,
      "name": "Object_8"
    }
  ],
  "scene": 0,
  "scenes": [
    {
      "name": "Sketchfab_Scene",
      "nodes": [
        0
      ]
    }
  ]
}
