{
  "accessors": [
    {
      "bufferView": 2,
      "componentType": 5126,
      "count": 705,
      "max": [
        0.9566299915313721,
        1.0,
        0.9132699966430664
      ],
      "min": [
        -0.9566299915313721,
        -0.90625,
        -1.0
      ],
      "type": "VEC3"
    },
    {
      "bufferView": 2,
      "byteOffset": 8460,
      "componentType": 5126,
      "count": 705,
      "max": [
        0.9365724325180054,
        0.9846500158309937,
        0.9993029832839966
      ],
      "min": [
        -0.9854128956794739,
        -0.9371793270111084,
        -0.9943229556083679
      ],
      "type": "VEC3"
    },
    {
      "bufferView": 0,
      "componentType": 5125,
      "count": 813,
      "type": "SCALAR"
    },
    {
      "bufferView": 2,
      "byteOffset": 16920,
      "componentType": 5126,
      "count": 2357,
      "max": [
        1.1836299896240234,
        1.0,
        1.1540100574493408
      ],
      "min": [
        -1.0,
        -1.3423199653625488,
        -0.9679499864578247
      ],
      "type": "VEC3"
    },
    {
      "bufferView": 2,
      "byteOffset": 45204,
      "componentType": 5126,
      "count": 2357,
      "max": [
        0.9983881115913391,
        0.9901237487792969,
        0.9998198747634888
      ],
      "min": [
        -0.9929721355438232,
        -0.9993088245391846,
        -0.999832034111023
      ],
      "type": "VEC3"
    },
    {
      "bufferView": 1,
      "componentType": 5126,
      "count": 2357,
      "max": [
        0.0,
        0.0
      ],
      "min": [
        0.0,
        0.0
      ],
      "type": "VEC2"
    },
    {
      "bufferView": 0,
      "byteOffset": 3252,
      "componentType": 5125,
      "count": 3333,
      "type": "SCALAR"
    }
  ],
  "asset": {
    "extras": {
      "author": "Studio 5 (https://sketchfab.com/Studio-5)",
      "license": "CC-BY-4.0 (http://creativecommons.org/licenses/by/4.0/)",
      "source": "https://sketchfab.com/3d-models/low-poly-planet-5b568821cf3e4636aa30ea06a770cb8e",
      "title": "Low-poly-planet"
    },
    "generator": "Sketchfab-12.68.0",
    "version": "2.0"
  },
  "bufferViews": [
    {
      "buffer": 0,
      "byteLength": 16584,
      "name": "floatBufferViews",
      "target": 34963
    },
    {
      "buffer": 0,
      "byteLength": 18856,
      "byteOffset": 16584,
      "byteStride": 8,
      "name": "floatBufferViews",
      "target": 34962
    },
    {
      "buffer": 0,
      "byteLength": 73488,
      "byteOffset": 35440,
      "byteStride": 12,
      "name": "floatBufferViews",
      "target": 34962
    }
  ],
  "buffers": [
    {
      "byteLength": 108928,
      "uri": "scene.bin"
    }
  ],
  "extensionsRequired": [
    "KHR_materials_pbrSpecularGlossiness"
  ],
  "extensionsUsed": [
    "KHR_materials_pbrSpecularGlossiness"
  ],
  "images": [
    {
      "uri": "textures/Root_specularGlossiness.png"
    }
  ],
  "materials": [
    {
      "doubleSided": true,
      "extensions": {
        "KHR_materials_pbrSpecularGlossiness": {
          "diffuseFactor": [
            0.0,
            0.0,
            0.0,
            1.0
          ],
          "glossinessFactor": 0.22732469512195125,
          "specularFactor": [
            0.18725200150977347,
            0.6276513753086158,
            0.20878178954804677
          ],
          "specularGlossinessTexture": {
            "index": 0
          }
        }
      },
      "name": "Root"
    },
    {
      "doubleSided": true,
      "extensions": {
        "KHR_materials_pbrSpecularGlossiness": {
          "diffuseFactor": [
            0.0443978659,
            0.0443978659,
            0.0443978659,
            1.0
          ],
          "glossinessFactor": 1.0,
          "specularFactor": [
            0.0029049772,
            0.0102728113,
            0.8741016689
          ]
        }
      },
      "name": "Water.001"
    }
  ],
  "meshes": [
    {
      "name": "Icosphere_0",
      "primitives": [
        {
          "attributes": {
            "NORMAL": 1,
            "POSITION": 0
          },
          "indices": 2,
          "material": 1,
          "mode": 4
        }
      ]
    },
    {
      "name": "Icosphere_7",
      "primitives": [
        {
          "attributes": {
            "NORMAL": 4,
            "POSITION": 3,
            "TEXCOORD_0": 5
          },
          "indices": 6,
          "material": 0,
          "mode": 4
        }
      ]
    }
  ],
  "nodes": [
    {
      "children": [
        1
      ],
      "matrix": [
        1.3208261728286743,
        0.0,
        0.0,
        0.0,
        0.0,
        2.932823257203841e-16,
        -1.3208261728286743,
        0.0,
        0.0,
        1.3208261728286743,
        2.932823257203841e-16,
        0.0,
        0.0,
        0.0,
        0.0,
        1.0
      ],
      "name": "Sketchfab_model"
    },
    {
      "children": [
        2,
        4
      ],
      "name": "Root"
    },
    {
      "children": [
        3
      ],
      "matrix": [
        -0.29086000000000006,
        0.9551700000000001,
        -0.05519000000000001,
        0.0,
        -0.7711,
        -0.19988000000000003,
        0.6045200000000001,
        0.0,
        0.5663900000000001,
        0.21839000000000003,
        0.7946700000000001,
        0.0,
        4.076250000000001,
        1.00545,
        5.903860000000001,
        1.0
      ],
      "name": "Lamp"
    },
    {
      "name": "Lamp"
    },
    {
      "children": [
        5,
        6
      ],
      "name": "Icosphere"
    },
    {
      "mesh": 0,
      "name": "Icosphere_0"
    },
    {
      "mesh": 1,
      "name": "Icosphere_7"
    }
  ],
  "samplers": [
    {
      "magFilter": 9729,
      "minFilter": 9987,
      "wrapS": 10497,
      "wrapT": 10497
    }
  ],
  "scene": 0,
  "scenes": [
    {
      "name": "Sketchfab_Scene",
      "nodes": [
        0
      ]
    }
  ],
  "textures": [
    {
      "sampler": 0,
      "source": 0
    }
  ]
}
